<svg xmlns="http://www.w3.org/2000/svg" viewBox="0 0 1020 220" width="1020" height="220" font-family="system-ui,-apple-system,sans-serif">
<rect width="1020" height="220" fill="#ffffff"/>
<text x="510" y="22" text-anchor="middle" font-size="11" fill="#999" font-weight="500" letter-spacing="0.5">PARTICIPANT FLOW — NKDT APP</text><defs>
  <marker id="arr"     viewBox="0 0 10 10" refX="8" refY="5" markerWidth="6" markerHeight="6" orient="auto"><path d="M2 1L8 5L2 9" fill="none" stroke="#555555" stroke-width="1.5" stroke-linecap="round" stroke-linejoin="round"/></marker>
  <marker id="arr-msg" viewBox="0 0 10 10" refX="8" refY="5" markerWidth="6" markerHeight="6" orient="auto"><path d="M2 1L8 5L2 9" fill="none" stroke="#888888" stroke-width="1.5" stroke-linecap="round" stroke-linejoin="round"/></marker>
  <marker id="arr-lt"  viewBox="0 0 10 10" refX="8" refY="5" markerWidth="6" markerHeight="6" orient="auto"><path d="M2 1L8 5L2 9" fill="none" stroke="#aaa" stroke-width="1.5" stroke-linecap="round" stroke-linejoin="round"/></marker>
</defs><rect x="40" y="60" width="140" height="100" rx="6" fill="#fdf8f0" stroke="#c8a96e" stroke-width="1.5"/>
<text x="110" y="104.0" text-anchor="middle" font-size="12" font-weight="600" fill="#3a2a0a">Splash</text>
<text x="110" y="120.0" text-anchor="middle" font-size="10" font-weight="400" fill="#9a7a4a">1 s load</text>
<text x="110" y="52" text-anchor="middle" font-size="9" fill="#aaa">1</text>
<line x1="180" y1="110" x2="200" y2="110" stroke="#555555" stroke-width="1.5" marker-end="url(#arr)"/>
<rect x="200" y="60" width="140" height="100" rx="6" fill="#fdf8f0" stroke="#c8a96e" stroke-width="1.5"/>
<text x="270" y="96.0" text-anchor="middle" font-size="12" font-weight="600" fill="#3a2a0a">About</text>
<text x="270" y="112.0" text-anchor="middle" font-size="10" font-weight="400" fill="#9a7a4a">Research context</text>
<text x="270" y="128.0" text-anchor="middle" font-size="10" font-weight="400" fill="#9a7a4a">&amp; privacy</text>
<text x="270" y="52" text-anchor="middle" font-size="9" fill="#aaa">2</text>
<line x1="340" y1="110" x2="360" y2="110" stroke="#555555" stroke-width="1.5" marker-end="url(#arr)"/>
<rect x="360" y="60" width="140" height="100" rx="6" fill="#eeedfe" stroke="#afa9ec" stroke-width="1.5"/>
<text x="430" y="96.0" text-anchor="middle" font-size="12" font-weight="600" fill="#3c3489">Terms</text>
<text x="430" y="112.0" text-anchor="middle" font-size="10" font-weight="400" fill="#534ab7">Must agree</text>
<text x="430" y="128.0" text-anchor="middle" font-size="10" font-weight="400" fill="#534ab7">to proceed</text>
<text x="430" y="52" text-anchor="middle" font-size="9" fill="#aaa">3</text>
<line x1="500" y1="110" x2="520" y2="110" stroke="#555555" stroke-width="1.5" marker-end="url(#arr)"/>
<rect x="520" y="60" width="140" height="100" rx="6" fill="#eeedfe" stroke="#afa9ec" stroke-width="1.5"/>
<text x="590" y="88.0" text-anchor="middle" font-size="12" font-weight="600" fill="#3c3489">Questions</text>
<text x="590" y="104.0" text-anchor="middle" font-size="10" font-weight="400" fill="#534ab7">Demographics</text>
<text x="590" y="120.0" text-anchor="middle" font-size="10" font-weight="400" fill="#534ab7">SCI-2 · URES</text>
<text x="590" y="136.0" text-anchor="middle" font-size="10" font-weight="400" fill="#534ab7">3 sections</text>
<text x="590" y="52" text-anchor="middle" font-size="9" fill="#aaa">4</text>
<line x1="660" y1="110" x2="680" y2="110" stroke="#555555" stroke-width="1.5" marker-end="url(#arr)"/>
<rect x="680" y="60" width="140" height="100" rx="6" fill="#fdf8f0" stroke="#c8a96e" stroke-width="1.5"/>
<text x="750" y="104.0" text-anchor="middle" font-size="12" font-weight="600" fill="#3a2a0a">Prizes</text>
<text x="750" y="120.0" text-anchor="middle" font-size="10" font-weight="400" fill="#9a7a4a">BuyMe raffle</text>
<text x="750" y="52" text-anchor="middle" font-size="9" fill="#aaa">5</text>
<line x1="820" y1="110" x2="840" y2="110" stroke="#555555" stroke-width="1.5" marker-end="url(#arr)"/>
<rect x="840" y="60" width="140" height="100" rx="6" fill="#e1f5ee" stroke="#5dcaa5" stroke-width="1.5"/>
<text x="910" y="96.0" text-anchor="middle" font-size="12" font-weight="600" fill="#085041">GPS active</text>
<text x="910" y="112.0" text-anchor="middle" font-size="10" font-weight="400" fill="#0f6e56">Background 10 min</text>
<text x="910" y="128.0" text-anchor="middle" font-size="10" font-weight="400" fill="#0f6e56">Persists · survives reboot</text>
<text x="910" y="52" text-anchor="middle" font-size="9" fill="#aaa">6— ongoing</text>
<text x="510" y="185" text-anchor="middle" font-size="10" fill="#bbb">Location service activates automatically after Terms acceptance · OnBootBroadcastReceiver.kt restarts it after reboot</text>
<rect x="40" y="196" width="12" height="12" rx="2" fill="#fdf8f0" stroke="#c8a96e" stroke-width="1.5"/>
<text x="58" y="205" font-size="10" fill="#555">App screen</text>
<rect x="146" y="196" width="12" height="12" rx="2" fill="#eeedfe" stroke="#afa9ec" stroke-width="1.5"/>
<text x="164" y="205" font-size="10" fill="#555">Requires user action</text>
<rect x="322" y="196" width="12" height="12" rx="2" fill="#e1f5ee" stroke="#5dcaa5" stroke-width="1.5"/>
<text x="340" y="205" font-size="10" fill="#555">Background service</text>
</svg>